<svg id="Dark" xmlns="http://www.w3.org/2000/svg" viewBox="0 0 32 54"><defs><style>.cls-1{fill:#f0f0f0;fill-rule:evenodd;}</style></defs><title>family-chapternav-iPhone-6-lf-lily</title><g id="iOS"><path class="cls-1" d="M16.71,35.41c0,2.89-1.45,4.68-3.8,4.69S9.1,38.3,9.1,35.42s1.46-4.68,3.81-4.68S16.71,32.53,16.71,35.41ZM32,27.79v14.4a12.54,12.54,0,0,1-.63,4.54,6.77,6.77,0,0,1-4.3,3.86,13.93,13.93,0,0,1-3.87.41H8.81a13.93,13.93,0,0,1-3.87-.4,6.77,6.77,0,0,1-4.3-3.85A12.54,12.54,0,0,1,0,42.21V27.81a12.54,12.54,0,0,1,.63-4.54,6.77,6.77,0,0,1,4.3-3.86A13.93,13.93,0,0,1,8.79,19h14.4a13.93,13.93,0,0,1,3.87.4,6.77,6.77,0,0,1,4.3,3.85A12.54,12.54,0,0,1,32,27.79ZM6.41,34H4.92v7.24H6.42V34Zm.21-2a1,1,0,1,0-1,1A1,1,0,0,0,6.63,32.06Zm11.58,3.35c0-3.74-2-6.07-5.3-6.06S7.6,31.67,7.61,35.42s2,6.07,5.31,6.07S18.21,39.16,18.21,35.41ZM27.54,38c0-1.71-1-2.69-3.43-3.29L23,34.42c-1.88-.47-2.26-1.05-2.26-1.79,0-1.13,1-1.92,2.53-1.92a2.37,2.37,0,0,1,2.62,1.84l0,.17h1.47v-.21c-.13-1.84-1.84-3.18-4.07-3.18-2.39,0-4.06,1.37-4.06,3.33,0,1.63,1,2.59,3.16,3.13l1.29.33c1.64.4,2.37,1,2.37,2,0,1.16-1.13,2-2.7,2s-2.82-.82-3-2l0-.18H18.89l0,.21c.14,2,1.89,3.35,4.34,3.35S27.54,40.08,27.54,38Z"/></g></svg>