<svg xmlns="http://www.w3.org/2000/svg" viewBox="0 0 36 54"><defs><style>.cls-1{fill:#f0f0f0;}</style></defs><title>family-chapternav-iPhone-6-lf-lily</title><g id="Light"><path class="cls-1" d="M33,5H17a3,3,0,0,0-3,3V48a3,3,0,0,0,3,3H33a3,3,0,0,0,3-3V8A3,3,0,0,0,33,5ZM27.33,6.15a.33.33,0,1,1-.33.33A.33.33,0,0,1,27.33,6.15Zm-3.08.08h2a.25.25,0,0,1,0,.5h-2a.25.25,0,0,1,0-.5ZM35,48a2,2,0,0,1-2,2H17a2,2,0,0,1-2-2V8a2,2,0,0,1,2-2h2.5a.5.5,0,0,1,.5.5V7a1,1,0,0,0,1,1h8a1,1,0,0,0,1-1V6.5a.5.5,0,0,1,.5-.5H33a2,2,0,0,1,2,2ZM3.19,50A2.19,2.19,0,0,1,1,47.81V12.19A2.19,2.19,0,0,1,3.19,10H5a.5.5,0,0,1,.5.5V11a1,1,0,0,0,1,1H13V9H3.19A3.2,3.2,0,0,0,0,12.19V47.81A3.2,3.2,0,0,0,3.19,51H14.38a4,4,0,0,1-.83-1Zm9.13-39.85a.33.33,0,1,1-.33.33A.33.33,0,0,1,12.33,10.15Zm-3.08.08h2a.25.25,0,0,1,0,.5h-2a.25.25,0,0,1,0-.5Z"/></g></svg>