<svg xmlns="http://www.w3.org/2000/svg" viewBox="0 0 32 54"><defs><style>.cls-1{fill:#f0f0f0;}</style></defs><title>family-chapternav-iPhone-6-lf-lily</title><g id="Dark"><path class="cls-1" d="M28.81,9H14.19A3.21,3.21,0,0,0,11,12.19V47.81A3.21,3.21,0,0,0,14.19,51H28.81A3.21,3.21,0,0,0,32,47.81V12.19A3.21,3.21,0,0,0,28.81,9ZM20,15.75A2.25,2.25,0,0,1,17.75,18h-3.5A2.25,2.25,0,0,1,12,15.75v-3.5A2.25,2.25,0,0,1,14.25,10h3.5A2.25,2.25,0,0,1,20,12.25Z"/></g><g id="Light"><path class="cls-1" d="M19,5H3A3,3,0,0,0,0,8V48a3,3,0,0,0,3,3h8.51A4.15,4.15,0,0,1,10,47.81V12.19A4.19,4.19,0,0,1,14,8V8h8A3,3,0,0,0,19,5ZM9,11.75A2.25,2.25,0,0,1,6.75,14H3.25A2.25,2.25,0,0,1,1,11.75V8.25A2.25,2.25,0,0,1,3.25,6h3.5A2.25,2.25,0,0,1,9,8.25Z"/></g></svg>