<svg id="Dark" xmlns="http://www.w3.org/2000/svg" viewBox="0 0 36 54"><defs><style>.cls-1{fill:#f0f0f0;}</style></defs><title>family-chapternav-iPhone-6-lf-lily</title><g id="Apple_Card" data-name="Apple Card"><path id="Icon" class="cls-1" d="M32,25H4a4,4,0,0,0-4,4V47a4,4,0,0,0,4,4H32a4,4,0,0,0,4-4V29A4,4,0,0,0,32,25ZM7.29,28.45a1.46,1.46,0,0,1,1.05-.53A1.45,1.45,0,0,1,8,29a1.28,1.28,0,0,1-1.05.56A1.46,1.46,0,0,1,7.29,28.45Zm2,5.7c-.29.44-.63.93-1.12.93s-.64-.31-1.18-.31-.74.31-1.18.31-.81-.49-1.12-.93A4.57,4.57,0,0,1,4,31.8a2.3,2.3,0,0,1,.31-1.24,1.83,1.83,0,0,1,1.49-.93c.47,0,.89.31,1.18.31a9.4,9.4,0,0,1,1.36-.31,1.61,1.61,0,0,1,1.3.74,1.57,1.57,0,0,0-.81,1.35,1.63,1.63,0,0,0,1,1.44A3.76,3.76,0,0,1,9.33,34.15Z"/></g></svg>