<svg id="Dark" xmlns="http://www.w3.org/2000/svg" viewBox="0 0 37 54"><defs><style>.cls-1{fill:#f0f0f0;}</style></defs><title>family-chapternav-iPhone-6-lf-lily</title><g id="iPhone_8" data-name="iPhone 8"><path class="cls-1" d="M34,5H17a3,3,0,0,0-3,3V48a3,3,0,0,0,3,3H34a3,3,0,0,0,3-3V8A3,3,0,0,0,34,5ZM23.25,7.25h4.5a.25.25,0,0,1,0,.5h-4.5a.25.25,0,0,1,0-.5ZM21.5,7.13a.38.38,0,1,1-.37.38A.38.38,0,0,1,21.5,7.13Zm4,43.13a1.75,1.75,0,1,1,1.75-1.75A1.75,1.75,0,0,1,25.5,50.25ZM36,46H15V10H36Zm-9.37,2.5a1.13,1.13,0,1,1-1.12-1.12A1.13,1.13,0,0,1,26.63,48.5Zm-16,0A1.13,1.13,0,1,1,9.5,47.38,1.13,1.13,0,0,1,10.63,48.5ZM14.38,51H3a3,3,0,0,1-3-3V14a3,3,0,0,1,3-3H13v5H1V46H13v2A4,4,0,0,0,14.38,51ZM7,13.5a.25.25,0,0,0,.25.25h4.5a.25.25,0,0,0,0-.5H7.25A.25.25,0,0,0,7,13.5Zm-1.87,0a.38.38,0,1,0,.38-.37A.38.38,0,0,0,5.13,13.5Zm6.13,35A1.75,1.75,0,1,0,9.5,50.25,1.75,1.75,0,0,0,11.25,48.5Z"/></g></svg>