<svg xmlns="http://www.w3.org/2000/svg" viewBox="0 0 22 54"><defs><style>.cls-1{fill:#f0f0f0;}</style></defs><title>family-chapternav-iPhone-6-lf-lily</title><g id="Light"><path class="cls-1" d="M18.81,7H3.19A3.2,3.2,0,0,0,0,10.19V47.81A3.2,3.2,0,0,0,3.19,51H18.81A3.2,3.2,0,0,0,22,47.81V10.19A3.2,3.2,0,0,0,18.81,7ZM13.08,8.15a.33.33,0,1,1-.33.33A.33.33,0,0,1,13.08,8.15ZM10,8.22h2a.25.25,0,0,1,0,.5H10a.25.25,0,0,1,0-.5ZM21,47.81A2.19,2.19,0,0,1,18.81,50H3.19A2.19,2.19,0,0,1,1,47.81V10.19A2.19,2.19,0,0,1,3.19,8H5.5a.5.5,0,0,1,.5.5V9a1,1,0,0,0,1,1h8a1,1,0,0,0,1-1V8.5a.5.5,0,0,1,.5-.5h2.31A2.19,2.19,0,0,1,21,10.19Z"/></g></svg>